<svg width="16" height="16" viewBox="0 0 16 16" fill="none" xmlns="http://www.w3.org/2000/svg"><path d="M9 13C10.3261 13 11.5979 12.4732 12.5355 11.5355C13.4732 10.5979 14 9.32608 14 8C14 6.67392 13.4732 5.40215 12.5355 4.46447C11.5979 3.52678 10.3261 3 9 3C7.67392 3 6.40215 3.52678 5.46447 4.46447C4.52678 5.40215 4 6.67392 4 8C4 9.32608 4.52678 10.5979 5.46447 11.5355C6.40215 12.4732 7.67392 13 9 13ZM9 14C8.21207 14 7.43185 13.8448 6.7039 13.5433C5.97595 13.2417 5.31451 12.7998 4.75736 12.2426C4.20021 11.6855 3.75825 11.0241 3.45672 10.2961C3.15519 9.56815 3 8.78793 3 8C3 7.21207 3.15519 6.43185 3.45672 5.7039C3.75825 4.97595 4.20021 4.31451 4.75736 3.75736C5.31451 3.20021 5.97595 2.75825 6.7039 2.45672C7.43185 2.15519 8.21207 2 9 2C10.5913 2 12.1174 2.63214 13.2426 3.75736C14.3679 4.88258 15 6.4087 15 8C15 9.5913 14.3679 11.1174 13.2426 12.2426C12.1174 13.3679 10.5913 14 9 14Z" fill="#4E5969"/><path d="M5.56994 12.884L6.43594 13.384L5.68594 14.683C5.65335 14.7404 5.60975 14.7907 5.55763 14.8311C5.50552 14.8715 5.44593 14.9012 5.38229 14.9185C5.31865 14.9357 5.25223 14.9402 5.18684 14.9317C5.12145 14.9232 5.05839 14.9019 5.00128 14.8689C4.94417 14.836 4.89416 14.792 4.8541 14.7396C4.81405 14.6873 4.78475 14.6275 4.76789 14.5637C4.75104 14.5 4.74696 14.4335 4.75589 14.3682C4.76483 14.3029 4.7866 14.2399 4.81994 14.183L5.56994 12.884ZM12.4359 12.884L11.5699 13.384L12.3199 14.683C12.3525 14.7404 12.3961 14.7907 12.4483 14.8311C12.5004 14.8715 12.56 14.9012 12.6236 14.9185C12.6872 14.9357 12.7537 14.9402 12.819 14.9317C12.8844 14.9232 12.9475 14.9019 13.0046 14.8689C13.0617 14.836 13.1117 14.792 13.1518 14.7396C13.1918 14.6873 13.2211 14.6275 13.238 14.5637C13.2548 14.5 13.2589 14.4335 13.25 14.3682C13.2411 14.3029 13.2193 14.2399 13.1859 14.183L12.4359 12.884ZM9.00294 8.00005H11.5029C11.6356 8.00005 11.7627 8.05272 11.8565 8.14649C11.9503 8.24026 12.0029 8.36744 12.0029 8.50005C12.0029 8.63266 11.9503 8.75983 11.8565 8.8536C11.7627 8.94737 11.6356 9.00005 11.5029 9.00005H8.50294C8.37034 9.00005 8.24316 8.94737 8.14939 8.8536C8.05562 8.75983 8.00294 8.63266 8.00294 8.50005V5.00005C8.00294 4.86744 8.05562 4.74026 8.14939 4.64649C8.24316 4.55273 8.37034 4.50005 8.50294 4.50005C8.63555 4.50005 8.76273 4.55273 8.8565 4.64649C8.95027 4.74026 9.00294 4.86744 9.00294 5.00005V8.00005ZM2.41694 4.87905C2.09785 4.3982 1.95494 3.82177 2.01245 3.24755C2.06997 2.67333 2.32437 2.13669 2.73249 1.72869C3.14062 1.32068 3.67733 1.06643 4.25156 1.00908C4.8258 0.951734 5.40219 1.09481 5.88294 1.41405L5.15094 2.14605C4.87104 2.01237 4.55657 1.96875 4.25084 2.0212C3.94512 2.07366 3.66318 2.2196 3.44384 2.43894C3.2245 2.65828 3.07855 2.94022 3.0261 3.24595C2.97365 3.55167 3.01726 3.86614 3.15094 4.14605L2.41794 4.87905H2.41694ZM15.4679 4.87905C15.7866 4.39827 15.9292 3.82211 15.8716 3.2482C15.814 2.6743 15.5597 2.13797 15.1519 1.73013C14.744 1.32228 14.2077 1.068 13.6338 1.01039C13.0599 0.952786 12.4837 1.09539 12.0029 1.41405L12.7349 2.14605C13.0149 2.01237 13.3293 1.96875 13.635 2.0212C13.9408 2.07366 14.2227 2.2196 14.4421 2.43894C14.6614 2.65828 14.8073 2.94022 14.8598 3.24595C14.9122 3.55167 14.8686 3.86614 14.7349 4.14605L15.4679 4.87905Z" fill="#4E5969"/></svg>