<svg width="16" height="16" viewBox="0 0 16 16" fill="none" xmlns="http://www.w3.org/2000/svg"><path d="M2 3H6.5C6.77614 3 7 3.22386 7 3.5C7 3.77614 6.77614 4 6.5 4H2V3Z" fill="#4E5969"/><path d="M1 3.5C1 3.22386 1.22386 3 1.5 3H2V15H1.5C1.22386 15 1 14.7761 1 14.5V3.5Z" fill="#4E5969"/><path d="M2 14H13V14.5C13 14.7761 12.7761 15 12.5 15H2V14Z" fill="#4E5969"/><path d="M12 9.5C12 9.22386 12.2239 9 12.5 9C12.7761 9 13 9.22386 13 9.5V14H12V9.5Z" fill="#4E5969"/><path d="M7.48384 8.64645C7.28858 8.45118 7.28858 8.1346 7.48384 7.93934L14.2014 1.22183L14.9085 1.92893L8.19095 8.64645C7.99569 8.84171 7.6791 8.84171 7.48384 8.64645Z" fill="#4E5969"/><path d="M14 1H14.5C14.7761 1 15 1.22386 15 1.5V6.5C15 6.77614 14.7761 7 14.5 7C14.2239 7 14 6.77614 14 6.5V1Z" fill="#4E5969"/><path d="M9 1.5C9 1.22386 9.22386 1 9.5 1H14.5C14.7761 1 15 1.22386 15 1.5V2H9.5C9.22386 2 9 1.77614 9 1.5Z" fill="#4E5969"/></svg>